<svg id="Layer_1" data-name="Layer 1" xmlns="http://www.w3.org/2000/svg" viewBox="0 0 48 48"><defs><style>.cls-1{fill:#999;}.cls-2{fill:#008cce;}</style></defs><title>DemandJump</title><path class="cls-1" d="M2.89,0h.46q14,0,28,0A12.49,12.49,0,0,1,39.6,3a15,15,0,0,1,5,8.2c.06.23.11.46.16.69l.09.65c-.3.09-8.14.13-8.93,0-.08-.13-.17-.28-.25-.44a4.82,4.82,0,0,0-3.54-2.51,4.15,4.15,0,0,0-.61,0h-20V48H2.89Z"/><path class="cls-2" d="M36.35,47v-.5q0-15.15,0-30.31c0-.77,0-1.53,0-2.33h8.62c0,.39.06.79.06,1.18,0,3.13,0,6.26,0,9.38,0,2.86,0,5.73,0,8.59a15.66,15.66,0,0,1-3.37,10,13.31,13.31,0,0,1-5,4l-.2.08S36.42,47,36.35,47Z"/><path class="cls-2" d="M35.18,47.42a12.8,12.8,0,0,1-4.73.54V37.88a16.71,16.71,0,0,0,2.68-2.31,14.27,14.27,0,0,0,2-2.87Z"/><path class="cls-2" d="M29.26,38.73V48H24.53v-7Z"/><path class="cls-2" d="M18.59,48V42.47l4.74-1.18V48Z"/><path class="cls-2" d="M12.67,43.09l4.73-.42V48H12.67Z"/></svg>